<svg width="5380" height="5496" viewBox="0 0 5380 5496" fill="none" xmlns="http://www.w3.org/2000/svg">
<rect width="597.781" height="1417.74" rx="298.89" transform="matrix(0.866025 0.5 0.5 -0.866025 2211 3323.2)" fill="url(#paint0_linear_307_2)"/>
<path d="M915.479 4196.19H822L964.435 3783.59H1076.85L1219.09 4196.19H1125.61L1022.26 3877.88H1019.03L915.479 4196.19ZM909.637 4034.01H1130.44V4102.11H909.637V4034.01Z" fill="black"/>
<path d="M1268.75 4196.19V3783.59H1355.98V4124.27H1532.87V4196.19H1268.75Z" fill="black"/>
<path d="M1938.61 3928.04H1850.37C1848.76 3916.63 1845.47 3906.49 1840.5 3897.62C1835.53 3888.62 1829.15 3880.97 1821.36 3874.65C1813.57 3868.34 1804.57 3863.51 1794.37 3860.15C1784.29 3856.79 1773.35 3855.11 1761.53 3855.11C1740.17 3855.11 1721.57 3860.42 1705.72 3871.03C1689.87 3881.5 1677.58 3896.81 1668.85 3916.96C1660.12 3936.97 1655.76 3961.28 1655.76 3989.89C1655.76 4019.31 1660.12 4044.02 1668.85 4064.03C1677.72 4084.04 1690.08 4099.15 1705.92 4109.36C1721.77 4119.57 1740.11 4124.67 1760.92 4124.67C1772.61 4124.67 1783.42 4123.13 1793.36 4120.04C1803.43 4116.95 1812.36 4112.45 1820.15 4106.54C1827.94 4100.5 1834.39 4093.18 1839.49 4084.58C1844.73 4075.98 1848.36 4066.18 1850.37 4055.17L1938.61 4055.57C1936.33 4074.51 1930.62 4092.77 1921.49 4110.37C1912.49 4127.83 1900.34 4143.47 1885.03 4157.31C1869.85 4171.01 1851.72 4181.89 1830.63 4189.95C1809.68 4197.87 1785.97 4201.83 1759.51 4201.83C1722.71 4201.83 1689.81 4193.5 1660.8 4176.85C1631.92 4160.2 1609.09 4136.09 1592.3 4104.52C1575.64 4072.96 1567.32 4034.75 1567.32 3989.89C1567.32 3944.9 1575.78 3906.62 1592.7 3875.06C1609.62 3843.49 1632.59 3819.45 1661.6 3802.93C1690.61 3786.28 1723.25 3777.95 1759.51 3777.95C1783.42 3777.95 1805.58 3781.31 1826 3788.02C1846.55 3794.74 1864.74 3804.54 1880.59 3817.44C1896.44 3830.2 1909.34 3845.84 1919.27 3864.38C1929.35 3882.91 1935.79 3904.13 1938.61 3928.04Z" fill="black"/>
<path d="M2001.17 4196.19V3783.59H2088.4V3953.83H2265.49V3783.59H2352.52V4196.19H2265.49V4025.75H2088.4V4196.19H2001.17Z" fill="black"/>
<path d="M2424.45 4196.19V3783.59H2702.47V3855.51H2511.68V3953.83H2688.16V4025.75H2511.68V4124.27H2703.27V4196.19H2424.45Z" fill="black"/>
<path d="M2771.82 3783.59H2879.4L2993.03 4060.81H2997.86L3111.49 3783.59H3219.07V4196.19H3134.46V3927.64H3131.03L3024.25 4194.18H2966.64L2859.86 3926.63H2856.43V4196.19H2771.82V3783.59Z" fill="black"/>
<path d="M3378.18 3783.59V4196.19H3290.94V3783.59H3378.18Z" fill="black"/>
<path d="M3813.99 3928.04H3725.75C3724.14 3916.63 3720.85 3906.49 3715.88 3897.62C3710.91 3888.62 3704.53 3880.97 3696.74 3874.65C3688.95 3868.34 3679.95 3863.51 3669.75 3860.15C3659.67 3856.79 3648.73 3855.11 3636.91 3855.11C3615.55 3855.11 3596.95 3860.42 3581.1 3871.03C3565.25 3881.5 3552.96 3896.81 3544.23 3916.96C3535.5 3936.97 3531.14 3961.28 3531.14 3989.89C3531.14 4019.31 3535.5 4044.02 3544.23 4064.03C3553.1 4084.04 3565.45 4099.15 3581.3 4109.36C3597.15 4119.57 3615.48 4124.67 3636.3 4124.67C3647.99 4124.67 3658.8 4123.13 3668.74 4120.04C3678.81 4116.95 3687.74 4112.45 3695.53 4106.54C3703.32 4100.5 3709.77 4093.18 3714.87 4084.58C3720.11 4075.98 3723.74 4066.18 3725.75 4055.17L3813.99 4055.57C3811.71 4074.51 3806 4092.77 3796.87 4110.37C3787.87 4127.83 3775.72 4143.47 3760.4 4157.31C3745.23 4171.01 3727.1 4181.89 3706.01 4189.95C3685.06 4197.87 3661.35 4201.83 3634.89 4201.83C3598.09 4201.83 3565.19 4193.5 3536.17 4176.85C3507.3 4160.2 3484.47 4136.09 3467.68 4104.52C3451.02 4072.96 3442.7 4034.75 3442.7 3989.89C3442.7 3944.9 3451.16 3906.62 3468.08 3875.06C3485 3843.49 3507.97 3819.45 3536.98 3802.93C3565.99 3786.28 3598.63 3777.95 3634.89 3777.95C3658.8 3777.95 3680.96 3781.31 3701.37 3788.02C3721.92 3794.74 3740.12 3804.54 3755.97 3817.44C3771.82 3830.2 3784.71 3845.84 3794.65 3864.38C3804.73 3882.91 3811.17 3904.13 3813.99 3928.04Z" fill="black"/>
<path d="M3939.91 4196.19H3846.43L3988.86 3783.59H4101.28L4243.51 4196.19H4150.04L4046.68 3877.88H4043.46L3939.91 4196.19ZM3934.07 4034.01H4154.87V4102.11H3934.07V4034.01Z" fill="black"/>
<path d="M4293.18 4196.19V3783.59H4380.41V4124.27H4557.3V4196.19H4293.18Z" fill="black"/>
<rect width="597.781" height="2341.97" rx="298.89" transform="matrix(0.866025 0.5 0.5 -0.866025 1325 3323.2)" fill="url(#paint1_linear_307_2)"/>
<rect width="597.781" height="611.197" rx="298.89" transform="matrix(0.866025 0.5 0.5 -0.866025 3077 3323.2)" fill="url(#paint2_linear_307_2)"/>
<defs>
<linearGradient id="paint0_linear_307_2" x1="8.29196" y1="733.638" x2="594.305" y2="718.634" gradientUnits="userSpaceOnUse">
<stop stop-opacity="0.5"/>
<stop offset="1" stop-opacity="0.65"/>
</linearGradient>
<linearGradient id="paint1_linear_307_2" x1="114.694" y1="1285.13" x2="515.823" y2="1286.47" gradientUnits="userSpaceOnUse">
<stop stop-color="#FF3985"/>
<stop offset="1" stop-color="#C90448"/>
</linearGradient>
<linearGradient id="paint2_linear_307_2" x1="571.406" y1="234.296" x2="42.125" y2="364.037" gradientUnits="userSpaceOnUse">
<stop/>
<stop offset="1" stop-opacity="0.59"/>
</linearGradient>
</defs>
</svg>
